Coordinates
nRows=165
nColumns=2
inDegrees=yes
endheader
time	ankle_angle_r	
7.43702	  0.183105	
7.49952	  0.167847	
7.56202	  0.244141	
7.62451	  0.137329	
7.68701	  0.274658	
7.7495	  0.244141	
7.812	  0.244141	
7.8745	  0.274658	
7.93699	  0.137329	
7.99949	  0.213623	
8.06198	  0.244141	
8.12448	  0.213623	
8.18698	  0.335693	
8.24947	  0.289917	
8.31197	  0.320435	
8.37446	  0.320435	
8.43696	  0.198364	
8.49946	  0.228882	
8.56195	  0.183105	
8.62445	  0.137329	
8.68694	  0.335693	
8.74944	  0.183105	
8.81194	  0.305176	
8.87443	  0.274658	
8.93693	  0.152588	
8.99942	  0.228882	
9.06192	  0.122070	
9.12442	  0.183105	
9.18691	  0.244141	
9.24941	  0.183105	
9.3119	  0.244141	
9.3744	  0.213623	
9.4369	  0.167847	
9.49939	  0.198364	
9.56189	  0.152588	
9.62438	  0.244141	
9.68688	  0.274658	
9.74938	  0.213623	
9.81187	  0.289917	
9.87437	  0.122070	
9.93686	  0.259399	
9.99936	  0.228882	
10.0619	  0.183105	
10.1244	  0.274658	
10.1868	  0.213623	
10.2493	  0.183105	
10.3118	  0.320435	
10.3743	  0.137329	
10.4368	  0.213623	
10.4993	  0.198364	
10.5618	  0.183105	
10.6243	  0.289917	
10.6868	  0.244141	
10.7493	  0.305176	
10.8118	  0.305176	
10.8743	  0.167847	
10.9368	  0.244141	
10.9993	  0.213623	
11.0618	  0.198364	
11.1243	  0.274658	
11.1868	  0.213623	
11.2493	  0.274658	
11.3118	  0.244141	
11.3743	  0.167847	
11.4368	  0.198364	
11.4993	  0.183105	
11.5618	  0.305176	
11.6243	  0.259399	
11.6868	  0.198364	
11.7492	  0.259399	
11.8117	  0.152588	
11.8742	  0.122070	
11.9367	  0.228882	
11.9992	  0.183105	
12.0617	  0.289917	
12.1242	  0.320435	
12.1867	  0.228882	
12.2492	  0.289917	
12.3117	  0.152588	
12.3742	  0.198364	
12.4367	  0.213623	
12.4992	  0.091553	
12.5617	  0.289917	
12.6242	  0.244141	
12.6867	  0.305176	
12.7492	  0.289917	
12.8117	  0.122070	
12.8742	  0.274658	
12.9367	  0.167847	
12.9992	  0.167847	
13.0617	  0.305176	
13.1242	  0.259399	
13.1867	  0.320435	
13.2492	  0.244141	
13.3116	  0.152588	
13.3741	  0.198364	
13.4366	  0.183105	
13.4991	  0.213623	
13.5616	  0.259399	
13.6241	  0.213623	
13.6866	  0.244141	
13.7491	  0.167847	
13.8116	  0.183105	
13.8741	  0.228882	
13.9366	  0.183105	
13.9991	  0.305176	
14.0616	  0.228882	
14.1241	  0.244141	
14.1866	  0.274658	
14.2491	  0.137329	
14.3116	  0.198364	
14.3741	  0.198364	
14.4366	  0.183105	
14.4991	  0.289917	
14.5616	  0.244141	
14.6241	  0.244141	
14.6866	  0.335693	
14.7491	  0.137329	
14.8116	  0.259399	
14.874	  0.198364	
14.9365	  0.228882	
14.999	  0.335693	
15.0615	  0.259399	
15.124	  0.289917	
15.1865	  0.289917	
15.249	  0.137329	
15.3115	  0.244141	
15.374	  0.198364	
15.4365	  0.228882	
15.499	  0.289917	
15.5615	  0.198364	
15.624	  0.244141	
15.6865	  0.152588	
15.749	  0.122070	
15.8115	  0.198364	
15.874	  0.183105	
15.9365	  0.259399	
15.999	  0.244141	
16.0615	  0.198364	
16.124	  0.274658	
16.1865	  0.122070	
16.249	  0.167847	
16.3115	  0.228882	
16.374	  0.167847	
16.4364	  0.320435	
16.4989	  0.259399	
16.5614	  0.289917	
16.6239	  0.244141	
16.6864	  0.122070	
16.7489	  0.167847	
16.8114	  0.167847	
16.8739	  0.137329	
16.9364	  0.289917	
16.9989	  0.213623	
17.0614	  0.289917	
17.1239	  0.289917	
17.1864	  0.198364	
17.2489	  0.183105	
17.3114	  0.106812	
17.3739	  0.244141	
17.4364	  0.259399	
17.4989	  0.183105	
17.5614	  0.259399	
17.6239	  0.122070	
17.6864	  0.213623	
